<svg xmlns="http://www.w3.org/2000/svg" width="512" height="512" viewBox="0 0 32 32" shape-rendering="crispEdges">
  <rect width="32" height="32" rx="7" fill="#151916"/>
  <rect x="2" y="2" width="28" height="28" rx="6" fill="#303831"/>
  <rect x="3" y="3" width="26" height="26" rx="5" fill="#202620"/>
  <rect x="5" y="6" width="22" height="20" rx="2" fill="#9bbc0f"/>
  <rect x="6" y="7" width="20" height="18" fill="#9bbc0f"/>
  <g fill="#172116">
    <!-- sun and changing pixel rays -->
    <rect x="20" y="8" width="2" height="2"/><rect x="20" y="15" width="2" height="2"/>
    <rect x="16" y="11" width="2" height="2"/><rect x="24" y="11" width="2" height="2"/>
    <rect x="18" y="9" width="1" height="1"/><rect x="23" y="9" width="1" height="1"/>
    <rect x="18" y="14" width="1" height="1"/><rect x="23" y="14" width="1" height="1"/>
    <rect x="19" y="10" width="4" height="5"/>
    <!-- cloud in front of the sun -->
    <rect x="8" y="15" width="14" height="5"/>
    <rect x="10" y="13" width="6" height="2"/>
    <rect x="12" y="12" width="4" height="2"/>
    <rect x="17" y="14" width="4" height="2"/>
    <rect x="7" y="16" width="2" height="3"/>
    <!-- three rain streaks -->
    <rect x="9" y="21" width="2" height="3"/>
    <rect x="14" y="20" width="2" height="3"/>
    <rect x="19" y="21" width="2" height="3"/>
    <!-- pixel lightning -->
    <path d="M23 17h3l-2 3h2l-4 5 1-4h-2z"/>
  </g>
  <path d="M6 8V7h1M25 8V7h-1M6 23v1h1M25 23v1h-1" fill="none" stroke="#cce467" stroke-width="1"/>
  <rect x="9" y="28" width="14" height="1" rx=".5" fill="#111511" opacity=".8"/>
</svg>
